<?xml version="1.0" encoding="UTF-8" standalone="no"?><!-- Generator: Gravit.io --><svg xmlns="http://www.w3.org/2000/svg" xmlns:xlink="http://www.w3.org/1999/xlink" style="isolation:isolate" viewBox="-37.791 16.826 49.097 54.174" width="49.097pt" height="54.174pt"><g><path d=" M -8.445 32.102 C -11.725 33.628 -14 36.954 -14 40.806 C -14 46.103 -9.7 50.403 -4.403 50.403 C 0.894 50.403 5.194 46.103 5.194 40.806 C 5.194 40.714 5.192 40.621 5.19 40.529 C 4.784 40.708 4.335 40.806 3.863 40.806 C 3.121 40.806 2.436 40.564 1.881 40.154 C 1.326 40.564 0.641 40.806 -0.101 40.806 C -1.494 40.806 -2.689 39.951 -3.187 38.735 C -3.411 38.786 -3.643 38.811 -3.882 38.811 C -5.725 38.811 -7.22 37.315 -7.22 35.473 C -7.22 35.234 -7.195 35.001 -7.145 34.778 C -7.936 34.168 -8.446 33.21 -8.446 32.135 C -8.446 32.124 -8.446 32.113 -8.445 32.102 Z " fill="rgb(255,255,255)"/><clipPath id="_clipPath_2aqzfcxAvLbUQ8Y6Wf0y9Ov243ifuZKz"><path d=" M -8.445 32.102 C -11.725 33.628 -14 36.954 -14 40.806 C -14 46.103 -9.7 50.403 -4.403 50.403 C 0.894 50.403 5.194 46.103 5.194 40.806 C 5.194 40.714 5.192 40.621 5.19 40.529 C 4.784 40.708 4.335 40.806 3.863 40.806 C 3.121 40.806 2.436 40.564 1.881 40.154 C 1.326 40.564 0.641 40.806 -0.101 40.806 C -1.494 40.806 -2.689 39.951 -3.187 38.735 C -3.411 38.786 -3.643 38.811 -3.882 38.811 C -5.725 38.811 -7.22 37.315 -7.22 35.473 C -7.22 35.234 -7.195 35.001 -7.145 34.778 C -7.936 34.168 -8.446 33.21 -8.446 32.135 C -8.446 32.124 -8.446 32.113 -8.445 32.102 Z " fill="rgb(255,255,255)"/></clipPath><g clip-path="url(#_clipPath_2aqzfcxAvLbUQ8Y6Wf0y9Ov243ifuZKz)"><g><circle vector-effect="non-scaling-stroke" cx="-4.403769063773115" cy="40.80615440826978" r="8.345100597861007" fill="rgb(230,186,129)"/><path d=" M -14 40.806 C -14 38.261 -12.988 35.82 -11.19 34.02 C -9.391 32.221 -6.948 31.209 -4.403 31.209 C -1.86 31.209 0.583 32.221 2.381 34.02 C 4.182 35.82 5.194 38.261 5.194 40.806 C 5.194 43.349 4.182 45.792 2.381 47.593 C 0.583 49.391 -1.86 50.403 -4.403 50.403 C -6.948 50.403 -9.391 49.391 -11.19 47.593 C -12.988 45.792 -14 43.349 -14 40.806 Z  M -11.496 40.806 C -11.496 38.927 -10.75 37.12 -9.419 35.791 C -8.09 34.46 -6.285 33.713 -4.403 33.713 C -2.523 33.713 -0.719 34.46 0.612 35.791 C 1.941 37.12 2.69 38.927 2.69 40.806 C 2.69 42.686 1.941 44.493 0.612 45.822 C -0.719 47.151 -2.523 47.9 -4.403 47.9 C -6.285 47.9 -8.09 47.151 -9.419 45.822 C -10.75 44.493 -11.496 42.686 -11.496 40.806 Z " fill-rule="evenodd" fill="rgb(102,78,46)"/><circle vector-effect="non-scaling-stroke" cx="-3.3345530496721913" cy="36.76399630618096" r="1.6690201195722008" fill="rgb(102,78,46)"/><circle vector-effect="non-scaling-stroke" cx="0.0034871894722350305" cy="41.145174120057945" r="1.6690201195722008" fill="rgb(102,78,46)"/><circle vector-effect="non-scaling-stroke" cx="-7.741809302917478" cy="38.433016425753074" r="1.6690201195722008" fill="rgb(102,78,46)"/><circle vector-effect="non-scaling-stroke" cx="-2.2914154749396154" cy="45.109096904041955" r="1.6690201195722008" fill="rgb(102,78,46)"/><circle vector-effect="non-scaling-stroke" cx="-4.403769063773183" cy="41.77105666489757" r="1.6690201195722008" fill="rgb(102,78,46)"/><circle vector-effect="non-scaling-stroke" cx="-7.741809302917561" cy="44.48321435920235" r="1.6690201195722008" fill="rgb(102,78,46)"/></g></g><circle vector-effect="non-scaling-stroke" cx="-1.5178282216150016" cy="22.042322154897622" r="1.669020119572175" fill="rgb(230,186,129)"/><circle vector-effect="non-scaling-stroke" cx="2.5093881360458177" cy="34.66428680916239" r="1.669020119572175" fill="rgb(230,186,129)"/><circle vector-effect="non-scaling-stroke" cx="8.802984836932836" cy="24.754479849202546" r="1.6690201195721746" fill="rgb(230,186,129)"/><circle vector-effect="non-scaling-stroke" cx="-4.716710336192563" cy="29.59860358651138" r="0.834510059786111" fill="rgb(102,78,46)"/><circle vector-effect="non-scaling-stroke" cx="3.9697807406716494" cy="28.346838496832472" r="0.8345100597861113" fill="rgb(102,78,46)"/><circle vector-effect="non-scaling-stroke" cx="5.012918315404257" cy="18.495654400806792" r="0.834510059786111" fill="rgb(102,78,46)"/><circle vector-effect="non-scaling-stroke" cx="7.968474777146619" cy="33.203894204536795" r="0.834510059786111" fill="rgb(102,78,46)"/><path d=" M -4.021 22.041 C -4.022 21.491 -3.839 20.956 -3.505 20.519 C -3.168 20.081 -2.7 19.767 -2.166 19.624 C -1.954 19.567 -1.737 19.539 -1.517 19.539 C -0.966 19.538 -0.431 19.721 0.006 20.055 C 0.444 20.391 0.758 20.862 0.901 21.394 C 0.957 21.606 0.985 21.823 0.986 22.043 C 0.987 22.594 0.804 23.129 0.468 23.567 C 0.133 24.004 -0.338 24.318 -0.87 24.461 C -1.081 24.517 -1.298 24.545 -1.518 24.546 C -2.069 24.547 -2.604 24.364 -3.041 24.029 C -3.479 23.693 -3.793 23.222 -3.936 22.69 C -3.992 22.479 -4.02 22.262 -4.021 22.041 Z  M -2.354 22.042 C -2.353 21.858 -2.293 21.68 -2.18 21.535 C -2.069 21.389 -1.911 21.284 -1.734 21.236 C -1.663 21.217 -1.59 21.207 -1.518 21.209 C -1.335 21.207 -1.155 21.267 -1.01 21.379 C -0.864 21.491 -0.759 21.649 -0.711 21.826 C -0.693 21.897 -0.684 21.97 -0.684 22.041 C -0.683 22.225 -0.744 22.405 -0.855 22.549 C -0.967 22.696 -1.124 22.801 -1.302 22.848 C -1.372 22.867 -1.445 22.876 -1.519 22.876 C -1.702 22.878 -1.881 22.816 -2.025 22.705 C -2.171 22.593 -2.276 22.436 -2.324 22.258 C -2.343 22.188 -2.353 22.115 -2.354 22.042 Z " fill-rule="evenodd" fill="rgb(102,78,46)"/><path d=" M 0.005 34.665 C 0.006 34.114 0.187 33.577 0.523 33.139 C 0.858 32.704 1.328 32.388 1.86 32.246 C 2.072 32.189 2.291 32.16 2.509 32.16 C 3.06 32.162 3.596 32.342 4.034 32.678 C 4.47 33.013 4.786 33.483 4.928 34.015 C 4.985 34.227 5.013 34.446 5.014 34.664 C 5.012 35.215 4.832 35.752 4.496 36.19 C 4.161 36.625 3.691 36.941 3.159 37.083 C 2.947 37.14 2.728 37.169 2.51 37.169 C 1.959 37.167 1.422 36.987 0.984 36.651 C 0.549 36.316 0.233 35.846 0.09 35.314 C 0.034 35.102 0.005 34.883 0.005 34.665 Z  M 1.675 34.665 C 1.675 34.481 1.735 34.303 1.847 34.156 C 1.959 34.01 2.115 33.905 2.292 33.858 C 2.363 33.839 2.436 33.83 2.509 33.83 C 2.693 33.83 2.871 33.89 3.018 34.002 C 3.164 34.114 3.269 34.27 3.316 34.447 C 3.335 34.518 3.344 34.591 3.344 34.664 C 3.344 34.848 3.283 35.026 3.171 35.173 C 3.059 35.317 2.904 35.424 2.727 35.471 C 2.656 35.49 2.583 35.499 2.509 35.499 C 2.326 35.499 2.148 35.439 2.001 35.327 C 1.856 35.214 1.75 35.059 1.702 34.882 C 1.684 34.811 1.675 34.738 1.675 34.665 Z " fill-rule="evenodd" fill="rgb(102,78,46)"/><path d=" M 6.3 24.753 C 6.299 24.203 6.482 23.668 6.816 23.231 C 7.152 22.793 7.621 22.479 8.155 22.336 C 8.367 22.279 8.584 22.251 8.802 22.251 C 9.355 22.25 9.89 22.433 10.327 22.767 C 10.765 23.103 11.079 23.574 11.221 24.106 C 11.278 24.318 11.306 24.535 11.307 24.755 C 11.307 25.306 11.125 25.841 10.788 26.279 C 10.454 26.716 9.983 27.03 9.451 27.173 C 9.24 27.229 9.022 27.257 8.802 27.258 C 8.252 27.259 7.717 27.076 7.28 26.741 C 6.842 26.405 6.528 25.934 6.385 25.402 C 6.328 25.191 6.3 24.974 6.3 24.753 Z  M 7.968 24.756 C 7.968 24.572 8.028 24.392 8.14 24.247 C 8.252 24.101 8.41 23.996 8.587 23.948 C 8.658 23.929 8.729 23.921 8.802 23.921 C 8.986 23.919 9.166 23.981 9.31 24.091 C 9.457 24.203 9.562 24.361 9.609 24.538 C 9.628 24.609 9.637 24.682 9.637 24.755 C 9.639 24.939 9.577 25.117 9.466 25.261 C 9.354 25.408 9.197 25.513 9.019 25.56 C 8.949 25.579 8.876 25.59 8.802 25.588 C 8.619 25.59 8.441 25.53 8.296 25.417 C 8.15 25.305 8.045 25.148 7.997 24.97 C 7.978 24.9 7.967 24.827 7.968 24.756 Z " fill-rule="evenodd" fill="rgb(102,78,46)"/><path d=" M -6.385 29.597 C -6.386 29.23 -6.264 28.874 -6.042 28.583 C -5.817 28.292 -5.504 28.083 -5.149 27.987 C -5.008 27.95 -4.862 27.93 -4.716 27.93 C -4.349 27.928 -3.992 28.051 -3.701 28.275 C -3.41 28.498 -3.201 28.811 -3.105 29.168 C -3.067 29.309 -3.048 29.453 -3.048 29.599 C -3.047 29.966 -3.169 30.323 -3.394 30.614 C -3.615 30.907 -3.929 31.116 -4.285 31.212 C -4.426 31.25 -4.571 31.267 -4.718 31.267 C -5.084 31.268 -5.441 31.146 -5.732 30.923 C -6.025 30.7 -6.234 30.386 -6.329 30.032 C -6.367 29.891 -6.385 29.744 -6.385 29.597 Z " fill="rgb(102,78,46)"/><path d=" M 2.302 28.347 C 2.3 27.981 2.422 27.622 2.645 27.331 C 2.869 27.04 3.182 26.831 3.537 26.736 C 3.678 26.698 3.824 26.678 3.971 26.678 C 4.338 26.679 4.694 26.799 4.986 27.023 C 5.276 27.246 5.488 27.561 5.583 27.915 C 5.621 28.056 5.638 28.201 5.639 28.347 C 5.64 28.714 5.517 29.071 5.293 29.362 C 5.071 29.655 4.758 29.864 4.401 29.96 C 4.262 29.997 4.116 30.017 3.969 30.015 C 3.602 30.016 3.245 29.894 2.954 29.671 C 2.663 29.447 2.452 29.134 2.357 28.78 C 2.319 28.639 2.301 28.492 2.302 28.347 Z " fill="rgb(102,78,46)"/><path d=" M 3.344 18.496 C 3.343 18.129 3.466 17.772 3.688 17.479 C 3.912 17.188 4.225 16.979 4.58 16.884 C 4.721 16.846 4.867 16.826 5.014 16.826 C 5.381 16.827 5.737 16.947 6.028 17.172 C 6.32 17.396 6.531 17.709 6.626 18.063 C 6.664 18.204 6.681 18.351 6.681 18.496 C 6.682 18.862 6.56 19.221 6.338 19.512 C 6.114 19.803 5.8 20.012 5.446 20.107 C 5.305 20.145 5.159 20.165 5.012 20.165 C 4.645 20.164 4.288 20.044 3.997 19.82 C 3.706 19.595 3.495 19.282 3.4 18.928 C 3.362 18.787 3.345 18.642 3.344 18.496 Z " fill="rgb(102,78,46)"/><path d=" M 6.3 33.203 C 6.299 32.836 6.422 32.479 6.644 32.188 C 6.868 31.897 7.181 31.686 7.536 31.591 C 7.677 31.553 7.823 31.535 7.968 31.536 C 8.335 31.534 8.694 31.656 8.984 31.879 C 9.276 32.103 9.485 32.416 9.58 32.771 C 9.618 32.912 9.637 33.058 9.638 33.205 C 9.637 33.572 9.516 33.928 9.292 34.22 C 9.07 34.51 8.755 34.722 8.4 34.817 C 8.259 34.855 8.115 34.872 7.968 34.873 C 7.601 34.874 7.244 34.751 6.954 34.529 C 6.66 34.305 6.451 33.992 6.356 33.637 C 6.318 33.496 6.299 33.35 6.3 33.203 Z " fill="rgb(102,78,46)"/></g><g><path d=" M -18.596 49.151 C -23.202 49.151 -26.941 45.412 -26.941 40.806 C -26.941 36.2 -23.202 32.461 -18.596 32.461 C -13.99 32.461 -10.251 36.2 -10.251 40.806 C -10.251 45.412 -13.99 49.151 -18.596 49.151 Z " fill="rgb(230,186,129)"/><path d=" M -18.597 50.403 C -21.14 50.403 -23.583 49.391 -25.381 47.591 C -27.182 45.792 -28.194 43.349 -28.194 40.806 C -28.194 38.261 -27.182 35.818 -25.381 34.02 C -23.583 32.221 -21.14 31.209 -18.597 31.209 C -16.052 31.209 -13.609 32.221 -11.81 34.02 C -10.012 35.818 -9 38.261 -9 40.806 L -9 40.806 C -9 43.349 -10.012 45.792 -11.81 47.591 C -13.609 49.391 -16.052 50.403 -18.597 50.403 Z  M -18.597 47.9 C -20.477 47.9 -22.281 47.151 -23.612 45.822 C -24.941 44.493 -25.69 42.686 -25.69 40.806 C -25.69 38.924 -24.941 37.12 -23.612 35.791 C -22.281 34.46 -20.477 33.713 -18.597 33.713 C -16.715 33.713 -14.91 34.46 -13.579 35.791 C -12.25 37.12 -11.504 38.924 -11.504 40.806 L -11.504 40.806 C -11.504 42.686 -12.25 44.493 -13.579 45.822 C -14.91 47.151 -16.715 47.9 -18.597 47.9 Z " fill-rule="evenodd" fill="rgb(102,78,46)"/><path d=" M -22.638 41.406 C -23.559 41.406 -24.307 40.658 -24.307 39.737 C -24.307 38.815 -23.559 38.068 -22.638 38.068 C -21.717 38.068 -20.969 38.815 -20.969 39.737 C -20.969 40.658 -21.717 41.406 -22.638 41.406 Z " fill="rgb(102,78,46)"/><path d=" M -18.257 38.068 C -19.178 38.068 -19.926 37.32 -19.926 36.398 C -19.926 35.477 -19.178 34.729 -18.257 34.729 C -17.336 34.729 -16.588 35.477 -16.588 36.398 C -16.588 37.32 -17.336 38.068 -18.257 38.068 Z " fill="rgb(102,78,46)"/><path d=" M -20.969 45.813 C -21.89 45.813 -22.638 45.065 -22.638 44.144 C -22.638 43.223 -21.89 42.475 -20.969 42.475 C -20.048 42.475 -19.3 43.223 -19.3 44.144 C -19.3 45.065 -20.048 45.813 -20.969 45.813 Z " fill="rgb(102,78,46)"/><path d=" M -14.293 40.362 C -15.214 40.362 -15.962 39.615 -15.962 38.693 C -15.962 37.772 -15.214 37.024 -14.293 37.024 C -13.372 37.024 -12.624 37.772 -12.624 38.693 C -12.624 39.615 -13.372 40.362 -14.293 40.362 Z " fill="rgb(102,78,46)"/><path d=" M -17.631 42.475 C -18.552 42.475 -19.3 41.727 -19.3 40.806 C -19.3 39.885 -18.552 39.137 -17.631 39.137 C -16.71 39.137 -15.962 39.885 -15.962 40.806 C -15.962 41.727 -16.71 42.475 -17.631 42.475 Z " fill="rgb(102,78,46)"/><path d=" M -14.919 45.813 C -15.84 45.813 -16.588 45.065 -16.588 44.144 C -16.588 43.223 -15.84 42.475 -14.919 42.475 C -13.998 42.475 -13.25 43.223 -13.25 44.144 C -13.25 45.065 -13.998 45.813 -14.919 45.813 Z " fill="rgb(102,78,46)"/></g><g><path d=" M -2.03 62.748 C -6.636 62.748 -10.375 59.008 -10.375 54.403 C -10.375 49.797 -6.636 46.058 -2.03 46.058 C 2.576 46.058 6.315 49.797 6.315 54.403 C 6.315 59.008 2.576 62.748 -2.03 62.748 Z " fill="rgb(230,186,129)"/><path d=" M -2.031 64 C -4.574 64 -7.017 62.988 -8.815 61.188 C -10.616 59.389 -11.628 56.946 -11.628 54.403 C -11.628 51.858 -10.616 49.415 -8.815 47.616 C -7.017 45.818 -4.574 44.806 -2.031 44.806 C 0.514 44.806 2.957 45.818 4.756 47.616 C 6.554 49.415 7.566 51.858 7.566 54.403 L 7.566 54.403 C 7.566 56.946 6.554 59.389 4.756 61.188 C 2.957 62.988 0.514 64 -2.031 64 Z  M -2.031 61.496 C -3.911 61.496 -5.715 60.747 -7.046 59.419 C -8.375 58.09 -9.124 56.283 -9.124 54.403 C -9.124 52.521 -8.375 50.717 -7.046 49.388 C -5.715 48.057 -3.911 47.31 -2.031 47.31 C -0.149 47.31 1.656 48.057 2.987 49.388 C 4.316 50.717 5.062 52.521 5.062 54.403 L 5.062 54.403 C 5.062 56.283 4.316 58.09 2.987 59.419 C 1.656 60.747 -0.149 61.496 -2.031 61.496 Z " fill-rule="evenodd" fill="rgb(102,78,46)"/><path d=" M -6.072 55.002 C -6.993 55.002 -7.741 54.255 -7.741 53.333 C -7.741 52.412 -6.993 51.664 -6.072 51.664 C -5.151 51.664 -4.403 52.412 -4.403 53.333 C -4.403 54.255 -5.151 55.002 -6.072 55.002 Z " fill="rgb(102,78,46)"/><path d=" M -1.691 51.664 C -2.612 51.664 -3.36 50.917 -3.36 49.995 C -3.36 49.074 -2.612 48.326 -1.691 48.326 C -0.77 48.326 -0.022 49.074 -0.022 49.995 C -0.022 50.917 -0.77 51.664 -1.691 51.664 Z " fill="rgb(102,78,46)"/><path d=" M -4.403 59.41 C -5.324 59.41 -6.072 58.662 -6.072 57.741 C -6.072 56.819 -5.324 56.072 -4.403 56.072 C -3.482 56.072 -2.734 56.819 -2.734 57.741 C -2.734 58.662 -3.482 59.41 -4.403 59.41 Z " fill="rgb(102,78,46)"/><path d=" M 2.273 53.959 C 1.352 53.959 0.604 53.211 0.604 52.29 C 0.604 51.369 1.352 50.621 2.273 50.621 C 3.194 50.621 3.942 51.369 3.942 52.29 C 3.942 53.211 3.194 53.959 2.273 53.959 Z " fill="rgb(102,78,46)"/><path d=" M -1.065 56.072 C -1.986 56.072 -2.734 55.324 -2.734 54.403 C -2.734 53.481 -1.986 52.734 -1.065 52.734 C -0.144 52.734 0.604 53.481 0.604 54.403 C 0.604 55.324 -0.144 56.072 -1.065 56.072 Z " fill="rgb(102,78,46)"/><path d=" M 1.647 59.41 C 0.726 59.41 -0.022 58.662 -0.022 57.741 C -0.022 56.819 0.726 56.072 1.647 56.072 C 2.568 56.072 3.316 56.819 3.316 57.741 C 3.316 58.662 2.568 59.41 1.647 59.41 Z " fill="rgb(102,78,46)"/></g><g><path d=" M -14.684 69.748 C -19.289 69.748 -23.029 66.008 -23.029 61.403 C -23.029 56.797 -19.289 53.058 -14.684 53.058 C -10.078 53.058 -6.338 56.797 -6.338 61.403 C -6.338 66.008 -10.078 69.748 -14.684 69.748 Z " fill="rgb(230,186,129)"/><path d=" M -14.684 71 C -17.227 71 -19.67 69.988 -21.469 68.188 C -23.269 66.389 -24.281 63.946 -24.281 61.403 C -24.281 58.858 -23.269 56.415 -21.469 54.616 C -19.67 52.818 -17.227 51.806 -14.684 51.806 C -12.139 51.806 -9.696 52.818 -7.898 54.616 C -6.099 56.415 -5.087 58.858 -5.087 61.403 L -5.087 61.403 C -5.087 63.946 -6.099 66.389 -7.898 68.188 C -9.696 69.988 -12.139 71 -14.684 71 Z  M -14.684 68.496 C -16.564 68.496 -18.369 67.747 -19.7 66.419 C -21.029 65.09 -21.778 63.283 -21.778 61.403 C -21.778 59.521 -21.029 57.717 -19.7 56.388 C -18.369 55.057 -16.564 54.31 -14.684 54.31 C -12.802 54.31 -10.998 55.057 -9.667 56.388 C -8.338 57.717 -7.591 59.521 -7.591 61.403 L -7.591 61.403 C -7.591 63.283 -8.338 65.09 -9.667 66.419 C -10.998 67.747 -12.802 68.496 -14.684 68.496 Z " fill-rule="evenodd" fill="rgb(102,78,46)"/><path d=" M -18.726 62.002 C -19.647 62.002 -20.395 61.255 -20.395 60.333 C -20.395 59.412 -19.647 58.664 -18.726 58.664 C -17.805 58.664 -17.057 59.412 -17.057 60.333 C -17.057 61.255 -17.805 62.002 -18.726 62.002 Z " fill="rgb(102,78,46)"/><path d=" M -14.345 58.664 C -15.266 58.664 -16.014 57.917 -16.014 56.995 C -16.014 56.074 -15.266 55.326 -14.345 55.326 C -13.423 55.326 -12.676 56.074 -12.676 56.995 C -12.676 57.917 -13.423 58.664 -14.345 58.664 Z " fill="rgb(102,78,46)"/><path d=" M -17.057 66.41 C -17.978 66.41 -18.726 65.662 -18.726 64.741 C -18.726 63.819 -17.978 63.072 -17.057 63.072 C -16.136 63.072 -15.388 63.819 -15.388 64.741 C -15.388 65.662 -16.136 66.41 -17.057 66.41 Z " fill="rgb(102,78,46)"/><path d=" M -10.381 60.959 C -11.302 60.959 -12.05 60.211 -12.05 59.29 C -12.05 58.369 -11.302 57.621 -10.381 57.621 C -9.459 57.621 -8.712 58.369 -8.712 59.29 C -8.712 60.211 -9.459 60.959 -10.381 60.959 Z " fill="rgb(102,78,46)"/><path d=" M -13.719 63.072 C -14.64 63.072 -15.388 62.324 -15.388 61.403 C -15.388 60.481 -14.64 59.734 -13.719 59.734 C -12.797 59.734 -12.05 60.481 -12.05 61.403 C -12.05 62.324 -12.797 63.072 -13.719 63.072 Z " fill="rgb(102,78,46)"/><path d=" M -11.006 66.41 C -11.928 66.41 -12.676 65.662 -12.676 64.741 C -12.676 63.819 -11.928 63.072 -11.006 63.072 C -10.085 63.072 -9.337 63.819 -9.337 64.741 C -9.337 65.662 -10.085 66.41 -11.006 66.41 Z " fill="rgb(102,78,46)"/></g><g><path d=" M -28.193 61.748 C -32.799 61.748 -36.538 58.008 -36.538 53.403 C -36.538 48.797 -32.799 45.058 -28.193 45.058 C -23.587 45.058 -19.848 48.797 -19.848 53.403 C -19.848 58.008 -23.587 61.748 -28.193 61.748 Z " fill="rgb(230,186,129)"/><path d=" M -28.194 63 C -30.737 63 -33.18 61.988 -34.978 60.188 C -36.779 58.389 -37.791 55.946 -37.791 53.403 C -37.791 50.858 -36.779 48.415 -34.978 46.616 C -33.18 44.818 -30.737 43.806 -28.194 43.806 C -25.648 43.806 -23.205 44.818 -21.407 46.616 C -19.609 48.415 -18.597 50.858 -18.597 53.403 L -18.597 53.403 C -18.597 55.946 -19.609 58.389 -21.407 60.188 C -23.205 61.988 -25.648 63 -28.194 63 Z  M -28.194 60.496 C -30.073 60.496 -31.878 59.747 -33.209 58.419 C -34.538 57.09 -35.287 55.283 -35.287 53.403 C -35.287 51.521 -34.538 49.717 -33.209 48.388 C -31.878 47.057 -30.073 46.31 -28.194 46.31 C -26.312 46.31 -24.507 47.057 -23.176 48.388 C -21.847 49.717 -21.1 51.521 -21.1 53.403 L -21.1 53.403 C -21.1 55.283 -21.847 57.09 -23.176 58.419 C -24.507 59.747 -26.312 60.496 -28.194 60.496 Z " fill-rule="evenodd" fill="rgb(102,78,46)"/><path d=" M -32.235 54.002 C -33.156 54.002 -33.904 53.255 -33.904 52.333 C -33.904 51.412 -33.156 50.664 -32.235 50.664 C -31.314 50.664 -30.566 51.412 -30.566 52.333 C -30.566 53.255 -31.314 54.002 -32.235 54.002 Z " fill="rgb(102,78,46)"/><path d=" M -27.854 50.664 C -28.775 50.664 -29.523 49.917 -29.523 48.995 C -29.523 48.074 -28.775 47.326 -27.854 47.326 C -26.933 47.326 -26.185 48.074 -26.185 48.995 C -26.185 49.917 -26.933 50.664 -27.854 50.664 Z " fill="rgb(102,78,46)"/><path d=" M -30.566 58.41 C -31.487 58.41 -32.235 57.662 -32.235 56.741 C -32.235 55.819 -31.487 55.072 -30.566 55.072 C -29.645 55.072 -28.897 55.819 -28.897 56.741 C -28.897 57.662 -29.645 58.41 -30.566 58.41 Z " fill="rgb(102,78,46)"/><path d=" M -23.89 52.959 C -24.811 52.959 -25.559 52.211 -25.559 51.29 C -25.559 50.369 -24.811 49.621 -23.89 49.621 C -22.969 49.621 -22.221 50.369 -22.221 51.29 C -22.221 52.211 -22.969 52.959 -23.89 52.959 Z " fill="rgb(102,78,46)"/><path d=" M -27.228 55.072 C -28.149 55.072 -28.897 54.324 -28.897 53.403 C -28.897 52.481 -28.149 51.734 -27.228 51.734 C -26.307 51.734 -25.559 52.481 -25.559 53.403 C -25.559 54.324 -26.307 55.072 -27.228 55.072 Z " fill="rgb(102,78,46)"/><path d=" M -24.516 58.41 C -25.437 58.41 -26.185 57.662 -26.185 56.741 C -26.185 55.819 -25.437 55.072 -24.516 55.072 C -23.595 55.072 -22.847 55.819 -22.847 56.741 C -22.847 57.662 -23.595 58.41 -24.516 58.41 Z " fill="rgb(102,78,46)"/></g><g><path d=" M -14.684 58.748 C -19.289 58.748 -23.029 55.008 -23.029 50.403 C -23.029 45.797 -19.289 42.058 -14.684 42.058 C -10.078 42.058 -6.338 45.797 -6.338 50.403 C -6.338 55.008 -10.078 58.748 -14.684 58.748 Z " fill="rgb(230,186,129)"/><path d=" M -14.684 60 C -17.227 60 -19.67 58.988 -21.469 57.188 C -23.269 55.389 -24.281 52.946 -24.281 50.403 C -24.281 47.858 -23.269 45.415 -21.469 43.616 C -19.67 41.818 -17.227 40.806 -14.684 40.806 C -12.139 40.806 -9.696 41.818 -7.898 43.616 C -6.099 45.415 -5.087 47.858 -5.087 50.403 L -5.087 50.403 C -5.087 52.946 -6.099 55.389 -7.898 57.188 C -9.696 58.988 -12.139 60 -14.684 60 Z  M -14.684 57.496 C -16.564 57.496 -18.369 56.747 -19.7 55.419 C -21.029 54.09 -21.778 52.283 -21.778 50.403 C -21.778 48.521 -21.029 46.717 -19.7 45.388 C -18.369 44.057 -16.564 43.31 -14.684 43.31 C -12.802 43.31 -10.998 44.057 -9.667 45.388 C -8.338 46.717 -7.591 48.521 -7.591 50.403 L -7.591 50.403 C -7.591 52.283 -8.338 54.09 -9.667 55.419 C -10.998 56.747 -12.802 57.496 -14.684 57.496 Z " fill-rule="evenodd" fill="rgb(102,78,46)"/><path d=" M -18.726 51.002 C -19.647 51.002 -20.395 50.255 -20.395 49.333 C -20.395 48.412 -19.647 47.664 -18.726 47.664 C -17.805 47.664 -17.057 48.412 -17.057 49.333 C -17.057 50.255 -17.805 51.002 -18.726 51.002 Z " fill="rgb(102,78,46)"/><path d=" M -14.345 47.664 C -15.266 47.664 -16.014 46.917 -16.014 45.995 C -16.014 45.074 -15.266 44.326 -14.345 44.326 C -13.423 44.326 -12.676 45.074 -12.676 45.995 C -12.676 46.917 -13.423 47.664 -14.345 47.664 Z " fill="rgb(102,78,46)"/><path d=" M -17.057 55.41 C -17.978 55.41 -18.726 54.662 -18.726 53.741 C -18.726 52.819 -17.978 52.072 -17.057 52.072 C -16.136 52.072 -15.388 52.819 -15.388 53.741 C -15.388 54.662 -16.136 55.41 -17.057 55.41 Z " fill="rgb(102,78,46)"/><path d=" M -10.381 49.959 C -11.302 49.959 -12.05 49.211 -12.05 48.29 C -12.05 47.369 -11.302 46.621 -10.381 46.621 C -9.459 46.621 -8.712 47.369 -8.712 48.29 C -8.712 49.211 -9.459 49.959 -10.381 49.959 Z " fill="rgb(102,78,46)"/><path d=" M -13.719 52.072 C -14.64 52.072 -15.388 51.324 -15.388 50.403 C -15.388 49.481 -14.64 48.734 -13.719 48.734 C -12.797 48.734 -12.05 49.481 -12.05 50.403 C -12.05 51.324 -12.797 52.072 -13.719 52.072 Z " fill="rgb(102,78,46)"/><path d=" M -11.006 55.41 C -11.928 55.41 -12.676 54.662 -12.676 53.741 C -12.676 52.819 -11.928 52.072 -11.006 52.072 C -10.085 52.072 -9.337 52.819 -9.337 53.741 C -9.337 54.662 -10.085 55.41 -11.006 55.41 Z " fill="rgb(102,78,46)"/></g></svg>