<?xml version="1.0" encoding="UTF-8" standalone="no"?><!-- Generator: Gravit.io -->
<svg xmlns="http://www.w3.org/2000/svg" xmlns:xlink="http://www.w3.org/1999/xlink"
    style="isolation:isolate" viewBox="0.219 0 74 64" width="74pt" height="64pt">
    <g class="cookiejar-closed">
        <g>
            <ellipse vector-effect="non-scaling-stroke" cx="59.91984238661426"
                cy="36.009488650411164" rx="8.461086997523168" ry="8.374178636877806"
                fill="rgb(230,186,129)" />
            <path
                d=" M 50.19 36.009 C 50.19 33.457 51.216 31.005 53.039 29.201 C 54.863 27.394 57.34 26.378 59.92 26.378 C 62.499 26.378 64.976 27.394 66.799 29.201 C 68.625 31.005 69.651 33.457 69.651 36.009 C 69.651 38.563 68.625 41.014 66.799 42.819 C 64.976 44.624 62.499 45.639 59.92 45.639 L 59.92 45.639 C 57.34 45.639 54.863 44.624 53.039 42.819 C 51.216 41.014 50.19 38.563 50.19 36.009 Z  M 52.728 36.009 C 52.728 34.122 53.486 32.312 54.835 30.976 C 56.183 29.642 58.012 28.891 59.92 28.891 C 61.826 28.891 63.658 29.642 65.006 30.976 C 66.353 32.312 67.112 34.122 67.112 36.009 C 67.112 37.897 66.353 39.708 65.006 41.044 C 63.658 42.377 61.826 43.127 59.92 43.127 L 59.92 43.127 C 58.012 43.127 56.183 42.377 54.835 41.044 C 53.486 39.708 52.728 37.897 52.728 36.009 Z "
                fill-rule="evenodd" fill="rgb(102,78,46)" />
            <ellipse vector-effect="non-scaling-stroke" cx="61.00391915817222"
                cy="31.953245873173472" rx="1.692217399504635" ry="1.6748357273755587"
                fill="rgb(102,78,46)" />
            <ellipse vector-effect="non-scaling-stroke" cx="64.38835395718144"
                cy="36.34968965753429" rx="1.6922173995046315" ry="1.6748357273755587"
                fill="rgb(102,78,46)" />
            <ellipse vector-effect="non-scaling-stroke" cx="56.535407587605064"
                cy="33.628081600549066" rx="1.692217399504635" ry="1.6748357273755587"
                fill="rgb(102,78,46)" />
            <ellipse vector-effect="non-scaling-stroke" cx="62.06155503286256"
                cy="40.327424510051266" rx="1.692217399504635" ry="1.6748357273755587"
                fill="rgb(102,78,46)" />
            <ellipse vector-effect="non-scaling-stroke" cx="59.91984238661461"
                cy="36.97775305529999" rx="1.692217399504635" ry="1.6748357273755587"
                fill="rgb(102,78,46)" />
            <ellipse vector-effect="non-scaling-stroke" cx="56.535407587605064"
                cy="39.69936111228546" rx="1.692217399504635" ry="1.6748357273755587"
                fill="rgb(102,78,46)" />
        </g>
        <g>
            <ellipse vector-effect="non-scaling-stroke" cx="46.920469106888454"
                cy="35.4484186817403" rx="8.461086997523168" ry="8.374178636877806"
                fill="rgb(230,186,129)" />
            <path
                d=" M 37.19 35.448 C 37.19 32.896 38.216 30.444 40.041 28.639 C 41.864 26.833 44.341 25.817 46.92 25.817 C 49.501 25.817 51.978 26.833 53.801 28.639 C 55.624 30.444 56.65 32.896 56.65 35.448 C 56.65 38.002 55.624 40.453 53.801 42.258 C 51.978 44.063 49.501 45.078 46.92 45.078 L 46.92 45.078 C 44.341 45.078 41.864 44.063 40.041 42.258 C 38.216 40.453 37.19 38.002 37.19 35.448 Z  M 39.728 35.448 C 39.728 33.561 40.487 31.75 41.835 30.415 C 43.182 29.081 45.014 28.33 46.92 28.33 C 48.828 28.33 50.658 29.081 52.005 30.415 C 53.355 31.75 54.112 33.561 54.112 35.448 C 54.112 37.336 53.355 39.147 52.005 40.483 C 50.658 41.816 48.828 42.566 46.92 42.566 L 46.92 42.566 C 45.014 42.566 43.182 41.816 41.835 40.483 C 40.487 39.147 39.728 37.336 39.728 35.448 Z "
                fill-rule="evenodd" fill="rgb(102,78,46)" />
            <ellipse vector-effect="non-scaling-stroke" cx="48.00454587844595"
                cy="31.392175904502594" rx="1.692217399504635" ry="1.6748357273755587"
                fill="rgb(102,78,46)" />
            <ellipse vector-effect="non-scaling-stroke" cx="51.3889806774554" cy="35.78861968886353"
                rx="1.692217399504635" ry="1.6748357273755587" fill="rgb(102,78,46)" />
            <ellipse vector-effect="non-scaling-stroke" cx="43.536034307879035"
                cy="33.06701163187819" rx="1.692217399504635" ry="1.6748357273755587"
                fill="rgb(102,78,46)" />
            <ellipse vector-effect="non-scaling-stroke" cx="49.06218175313653"
                cy="39.76635454138051" rx="1.692217399504635" ry="1.6748357273755587"
                fill="rgb(102,78,46)" />
            <ellipse vector-effect="non-scaling-stroke" cx="46.92046910688847"
                cy="36.41668308662934" rx="1.692217399504635" ry="1.6748357273755587"
                fill="rgb(102,78,46)" />
            <ellipse vector-effect="non-scaling-stroke" cx="43.536034307879035"
                cy="39.13829114361458" rx="1.692217399504635" ry="1.6748357273755587"
                fill="rgb(102,78,46)" />
        </g>
        <g>
            <ellipse vector-effect="non-scaling-stroke" cx="55.17002892947352"
                cy="27.63531001353326" rx="8.461086997523168" ry="8.374178636877804"
                fill="rgb(230,186,129)" />
            <path
                d=" M 45.439 27.635 C 45.439 25.083 46.465 22.631 48.291 20.826 C 50.114 19.02 52.591 18.004 55.169 18.004 C 57.75 18.004 60.227 19.02 62.05 20.826 C 63.874 22.631 64.9 25.083 64.9 27.635 C 64.9 30.189 63.874 32.64 62.05 34.445 C 60.227 36.25 57.75 37.265 55.169 37.265 L 55.169 37.265 C 52.591 37.265 50.114 36.25 48.291 34.445 C 46.465 32.64 45.439 30.189 45.439 27.635 Z  M 47.978 27.635 C 47.978 25.748 48.737 23.937 50.084 22.602 C 51.432 21.268 53.264 20.517 55.169 20.517 C 57.077 20.517 58.907 21.268 60.255 22.602 C 61.604 23.937 62.361 25.748 62.361 27.635 C 62.361 29.523 61.604 31.334 60.255 32.67 C 58.907 34.003 57.077 34.753 55.169 34.753 L 55.169 34.753 C 53.264 34.753 51.432 34.003 50.084 32.67 C 48.737 31.334 47.978 29.523 47.978 27.635 Z "
                fill-rule="evenodd" fill="rgb(102,78,46)" />
            <ellipse vector-effect="non-scaling-stroke" cx="56.254105701031136"
                cy="23.579067236295675" rx="1.692217399504635" ry="1.6748357273755587"
                fill="rgb(102,78,46)" />
            <ellipse vector-effect="non-scaling-stroke" cx="59.63854050004057"
                cy="27.975511020656608" rx="1.692217399504635" ry="1.6748357273755587"
                fill="rgb(102,78,46)" />
            <ellipse vector-effect="non-scaling-stroke" cx="51.78559413046432"
                cy="25.25390296367115" rx="1.692217399504635" ry="1.6748357273755587"
                fill="rgb(102,78,46)" />
            <ellipse vector-effect="non-scaling-stroke" cx="57.31174157572147"
                cy="31.953245873173472" rx="1.692217399504635" ry="1.6748357273755587"
                fill="rgb(102,78,46)" />
            <ellipse vector-effect="non-scaling-stroke" cx="55.17002892947365" cy="28.6035744184222"
                rx="1.692217399504635" ry="1.6748357273755587" fill="rgb(102,78,46)" />
            <ellipse vector-effect="non-scaling-stroke" cx="51.78559413046432"
                cy="31.32518247540755" rx="1.692217399504635" ry="1.6748357273755605"
                fill="rgb(102,78,46)" />
        </g>
        <path
            d=" M 44.605 3.35 L 63.22 3.35 C 63.57 3.35 63.727 3.602 63.57 3.912 L 62.162 6.7 L 45.663 6.7 L 44.254 3.912 C 44.098 3.602 44.255 3.35 44.605 3.35 Z  M 44.648 0.001 L 63.177 0.001 C 64.074 -0.014 64.948 0.281 65.648 0.836 C 66.532 1.546 67.038 2.622 67.014 3.75 C 67.002 4.334 66.856 4.91 66.587 5.429 L 64.254 10.05 L 43.571 10.05 L 41.238 5.429 C 40.969 4.91 40.823 4.334 40.81 3.75 C 40.787 2.622 41.293 1.546 42.177 0.836 C 42.877 0.281 43.751 -0.014 44.648 0.001 Z "
            fill-rule="evenodd"  fill="currentColor" />
        <path
            d=" M 44.602 3.35 L 63.223 3.35 C 63.571 3.35 63.727 3.603 63.57 3.914 L 62.162 6.7 L 45.663 6.7 L 44.255 3.914 C 44.098 3.603 44.254 3.35 44.602 3.35 Z "
            fill="rgb(223,212,179)" />
        <path
            d=" M 57.297 39.359 C 57.745 39.359 58.177 39.535 58.494 39.849 C 58.811 40.163 58.989 40.59 58.989 41.034 C 58.989 41.478 58.811 41.905 58.494 42.219 C 58.177 42.533 57.745 42.709 57.297 42.709 L 45.24 42.709 C 43.725 42.709 42.272 42.112 41.202 41.053 C 40.131 39.994 39.529 38.555 39.529 37.056 L 39.529 21.773 C 39.529 21.33 39.706 20.902 40.024 20.588 C 40.341 20.274 40.772 20.099 41.221 20.099 C 41.669 20.099 42.101 20.274 42.418 20.588 C 42.735 20.902 42.913 21.33 42.913 21.773 L 42.913 37.056 C 42.913 37.668 43.158 38.254 43.594 38.685 C 44.03 39.116 44.622 39.359 45.24 39.359 L 57.297 39.359 Z "
            fill="currentColor"  />
        <path
            d=" M 65.336 12.008 C 68.508 12.899 70.835 15.79 70.835 19.214 L 70.835 37.731 C 70.835 41.865 67.444 45.221 63.268 45.221 L 44.559 45.221 C 40.382 45.221 36.991 41.865 36.991 37.731 L 36.991 19.214 C 36.991 15.79 39.318 12.899 42.491 12.008 L 42.491 11.368 C 42.491 10.641 43.088 10.05 43.823 10.05 L 64.003 10.05 C 64.739 10.05 65.336 10.641 65.336 11.368 L 65.336 12.008 Z  M 68.381 9.629 C 69.779 10.359 71 11.381 71.962 12.625 C 73.426 14.515 74.221 16.833 74.219 19.215 L 74.219 37.73 C 74.219 37.73 74.219 37.73 74.219 37.73 C 74.219 40.605 73.064 43.364 71.012 45.395 C 68.958 47.428 66.17 48.571 63.268 48.571 L 44.559 48.571 C 41.654 48.571 38.867 47.428 36.815 45.395 C 34.761 43.364 33.606 40.605 33.606 37.73 C 33.606 37.73 33.606 37.73 33.606 37.73 L 33.606 19.215 C 33.606 16.833 34.399 14.515 35.865 12.625 C 36.825 11.381 38.048 10.359 39.446 9.629 C 39.797 8.764 40.402 8.023 41.183 7.5 C 41.961 6.978 42.881 6.7 43.823 6.7 L 64.002 6.7 C 64.944 6.7 65.864 6.978 66.644 7.5 C 67.425 8.023 68.03 8.764 68.381 9.629 Z "
            fill-rule="evenodd" fill="currentColor"  />
    </g>
    <g class="cookiejar-open">
        <g>
            <path
                d=" M 61.527 30.901 C 56.858 30.901 53.066 27.149 53.066 22.527 C 53.066 17.905 56.858 14.153 61.527 14.153 C 66.197 14.153 69.989 17.905 69.989 22.527 C 69.989 27.149 66.197 30.901 61.527 30.901 Z "
                fill="rgb(230,186,129)" />
            <path
                d=" M 61.527 32.157 C 58.948 32.157 56.471 31.141 54.648 29.337 C 52.822 27.532 51.796 25.081 51.796 22.527 C 51.796 19.974 52.822 17.523 54.648 15.718 C 56.471 13.912 58.948 12.896 61.527 12.896 C 64.107 12.896 66.584 13.912 68.408 15.718 C 70.231 17.523 71.257 19.974 71.257 22.527 L 71.257 22.527 C 71.257 25.081 70.231 27.532 68.408 29.337 C 66.584 31.141 64.107 32.157 61.527 32.157 Z  M 61.527 29.645 C 59.621 29.645 57.791 28.895 56.442 27.559 C 55.094 26.226 54.335 24.415 54.335 22.527 C 54.335 20.64 55.094 18.827 56.442 17.494 C 57.791 16.16 59.621 15.408 61.527 15.408 C 63.435 15.408 65.264 16.16 66.614 17.494 C 67.961 18.827 68.719 20.64 68.719 22.527 L 68.719 22.527 C 68.719 24.415 67.961 26.226 66.614 27.559 C 65.264 28.895 63.435 29.645 61.527 29.645 Z "
                fill-rule="evenodd" fill="rgb(102,78,46)" />
            <path
                d=" M 57.429 23.129 C 56.495 23.129 55.737 22.378 55.737 21.454 C 55.737 20.53 56.495 19.779 57.429 19.779 C 58.363 19.779 59.121 20.53 59.121 21.454 C 59.121 22.378 58.363 23.129 57.429 23.129 Z "
                fill="rgb(102,78,46)" />
            <path
                d=" M 61.871 19.779 C 60.937 19.779 60.179 19.029 60.179 18.104 C 60.179 17.18 60.937 16.43 61.871 16.43 C 62.805 16.43 63.563 17.18 63.563 18.104 C 63.563 19.029 62.805 19.779 61.871 19.779 Z "
                fill="rgb(102,78,46)" />
            <path
                d=" M 59.121 27.552 C 58.187 27.552 57.429 26.801 57.429 25.877 C 57.429 24.952 58.187 24.202 59.121 24.202 C 60.055 24.202 60.814 24.952 60.814 25.877 C 60.814 26.801 60.055 27.552 59.121 27.552 Z "
                fill="rgb(102,78,46)" />
            <path
                d=" M 65.89 22.082 C 64.956 22.082 64.198 21.332 64.198 20.407 C 64.198 19.483 64.956 18.733 65.89 18.733 C 66.824 18.733 67.582 19.483 67.582 20.407 C 67.582 21.332 66.824 22.082 65.89 22.082 Z "
                fill="rgb(102,78,46)" />
            <path
                d=" M 62.506 24.202 C 61.572 24.202 60.814 23.451 60.814 22.527 C 60.814 21.603 61.572 20.852 62.506 20.852 C 63.44 20.852 64.198 21.603 64.198 22.527 C 64.198 23.451 63.44 24.202 62.506 24.202 Z "
                fill="rgb(102,78,46)" />
            <path
                d=" M 65.256 27.552 C 64.322 27.552 63.563 26.801 63.563 25.877 C 63.563 24.952 64.322 24.202 65.256 24.202 C 66.19 24.202 66.948 24.952 66.948 25.877 C 66.948 26.801 66.19 27.552 65.256 27.552 Z "
                fill="rgb(102,78,46)" />
        </g>
        <g>
            <path
                d=" M 60.961 43.767 C 56.291 43.767 52.499 40.015 52.499 35.393 C 52.499 30.771 56.291 27.019 60.961 27.019 C 65.63 27.019 69.422 30.771 69.422 35.393 C 69.422 40.015 65.63 43.767 60.961 43.767 Z "
                fill="rgb(230,186,129)" />
            <path
                d=" M 60.96 45.024 C 58.381 45.024 55.904 44.008 54.081 42.202 C 52.255 40.397 51.23 37.945 51.23 35.393 C 51.23 32.839 52.255 30.388 54.081 28.583 C 55.904 26.779 58.381 25.763 60.96 25.763 C 63.54 25.763 66.017 26.779 67.841 28.583 C 69.664 30.388 70.69 32.839 70.69 35.393 L 70.69 35.393 C 70.69 37.945 69.664 40.397 67.841 42.202 C 66.017 44.008 63.54 45.024 60.96 45.024 Z  M 60.96 42.511 C 59.054 42.511 57.224 41.76 55.875 40.426 C 54.527 39.093 53.768 37.28 53.768 35.393 C 53.768 33.505 54.527 31.694 55.875 30.361 C 57.224 29.025 59.054 28.275 60.96 28.275 C 62.868 28.275 64.698 29.025 66.047 30.361 C 67.394 31.694 68.152 33.505 68.152 35.393 L 68.152 35.393 C 68.152 37.28 67.394 39.093 66.047 40.426 C 64.698 41.76 62.868 42.511 60.96 42.511 Z "
                fill-rule="evenodd" fill="rgb(102,78,46)" />
            <path
                d=" M 56.862 35.995 C 55.928 35.995 55.17 35.244 55.17 34.32 C 55.17 33.396 55.928 32.645 56.862 32.645 C 57.796 32.645 58.554 33.396 58.554 34.32 C 58.554 35.244 57.796 35.995 56.862 35.995 Z "
                fill="rgb(102,78,46)" />
            <path
                d=" M 61.304 32.645 C 60.37 32.645 59.612 31.895 59.612 30.97 C 59.612 30.046 60.37 29.295 61.304 29.295 C 62.238 29.295 62.997 30.046 62.997 30.97 C 62.997 31.895 62.238 32.645 61.304 32.645 Z "
                fill="rgb(102,78,46)" />
            <path
                d=" M 58.554 40.417 C 57.62 40.417 56.862 39.667 56.862 38.743 C 56.862 37.818 57.62 37.068 58.554 37.068 C 59.488 37.068 60.247 37.818 60.247 38.743 C 60.247 39.667 59.488 40.417 58.554 40.417 Z "
                fill="rgb(102,78,46)" />
            <path
                d=" M 65.323 34.948 C 64.389 34.948 63.631 34.198 63.631 33.273 C 63.631 32.349 64.389 31.598 65.323 31.598 C 66.257 31.598 67.016 32.349 67.016 33.273 C 67.016 34.198 66.257 34.948 65.323 34.948 Z "
                fill="rgb(102,78,46)" />
            <path
                d=" M 61.939 37.068 C 61.005 37.068 60.247 36.317 60.247 35.393 C 60.247 34.469 61.005 33.718 61.939 33.718 C 62.873 33.718 63.631 34.469 63.631 35.393 C 63.631 36.317 62.873 37.068 61.939 37.068 Z "
                fill="rgb(102,78,46)" />
            <path
                d=" M 64.689 40.417 C 63.755 40.417 62.997 39.667 62.997 38.743 C 62.997 37.818 63.755 37.068 64.689 37.068 C 65.623 37.068 66.381 37.818 66.381 38.743 C 66.381 39.667 65.623 40.417 64.689 40.417 Z "
                fill="rgb(102,78,46)" />
        </g>
        <path
            d=" M 64.913 25.124 C 64.913 24.678 65.09 24.253 65.408 23.939 C 65.725 23.625 66.156 23.449 66.605 23.449 C 67.053 23.449 67.483 23.625 67.8 23.939 C 68.117 24.253 68.297 24.678 68.297 25.124 L 68.297 37.057 C 68.297 38.554 67.694 39.995 66.624 41.054 C 65.553 42.113 64.1 42.71 62.586 42.71 L 47.144 42.71 C 46.696 42.71 46.264 42.532 45.947 42.218 C 45.63 41.904 45.452 41.479 45.452 41.035 C 45.452 40.589 45.63 40.164 45.947 39.85 C 46.264 39.536 46.696 39.36 47.144 39.36 L 62.586 39.36 C 63.201 39.36 63.794 39.117 64.231 38.684 C 64.667 38.253 64.913 37.667 64.913 37.057 L 64.913 25.124 Z "
            fill="currentColor"  />
        <path
            d=" M 37.277 17.167 C 38.178 14.027 41.098 11.724 44.558 11.724 L 63.267 11.724 C 67.444 11.724 70.835 15.08 70.835 19.214 L 70.835 37.73 C 70.835 41.864 67.444 45.22 63.267 45.22 L 44.558 45.22 C 41.098 45.22 38.178 42.917 37.277 39.777 L 36.631 39.777 C 35.895 39.777 35.298 39.186 35.298 38.458 L 35.298 18.486 C 35.298 17.758 35.895 17.167 36.631 17.167 L 37.277 17.167 Z  M 34.873 14.153 C 35.611 12.769 36.643 11.561 37.9 10.609 C 39.81 9.16 42.152 8.373 44.559 8.375 L 63.266 8.375 C 63.266 8.375 63.266 8.375 63.266 8.375 C 66.17 8.375 68.958 9.518 71.01 11.549 C 73.064 13.581 74.219 16.341 74.219 19.213 L 74.219 37.73 C 74.219 40.605 73.064 43.364 71.01 45.395 C 68.958 47.428 66.17 48.571 63.266 48.571 C 63.266 48.571 63.266 48.571 63.266 48.571 L 44.559 48.571 C 42.152 48.571 39.81 47.786 37.9 46.335 C 36.643 45.384 35.611 44.174 34.873 42.79 C 33.999 42.443 33.251 41.844 32.722 41.072 C 32.195 40.301 31.914 39.391 31.914 38.459 L 31.914 18.487 C 31.914 17.555 32.195 16.644 32.722 15.872 C 33.251 15.099 33.999 14.5 34.873 14.153 Z "
            fill-rule="evenodd" fill="currentColor"  />
        <path
            d=" M 6.029 27.068 L 18.868 13.729 C 19.109 13.478 19.402 13.54 19.521 13.867 L 20.373 16.204 C 20.492 16.532 20.392 17.001 20.151 17.252 L 9.646 28.166 C 9.405 28.417 8.938 28.539 8.604 28.438 L 6.195 27.706 C 5.861 27.605 5.787 27.319 6.029 27.068 Z "
            fill="rgb(223,212,179)" />
        <path
            d=" M 6.028 27.068 L 18.868 13.729 C 19.109 13.478 19.402 13.539 19.521 13.865 L 20.373 16.207 C 20.492 16.533 20.392 17.001 20.151 17.252 L 9.646 28.166 C 9.405 28.417 8.937 28.538 8.602 28.437 L 6.197 27.707 C 5.863 27.606 5.787 27.319 6.028 27.068 Z  M 3.61 24.724 L 16.407 11.428 C 16.716 11.104 17.08 10.834 17.482 10.63 C 18.006 10.365 18.584 10.226 19.172 10.224 C 20.069 10.224 20.934 10.545 21.609 11.129 C 22.112 11.568 22.493 12.127 22.713 12.755 L 23.557 15.071 C 23.561 15.083 23.567 15.098 23.572 15.111 C 23.732 15.569 23.813 16.051 23.809 16.536 C 23.804 17.043 23.718 17.545 23.546 18.023 C 23.352 18.578 23.043 19.088 22.643 19.52 C 22.628 19.534 22.616 19.549 22.601 19.562 L 12.096 30.477 C 12.082 30.492 12.067 30.507 12.052 30.523 C 11.612 30.963 11.081 31.304 10.495 31.522 C 9.981 31.717 9.433 31.819 8.883 31.821 C 8.462 31.826 8.043 31.767 7.642 31.648 C 7.631 31.645 7.62 31.643 7.61 31.639 L 5.234 30.919 C 4.562 30.722 3.957 30.352 3.481 29.845 C 2.831 29.148 2.482 28.229 2.504 27.28 C 2.533 26.322 2.929 25.407 3.61 24.724 Z "
            fill-rule="evenodd" fill="currentColor"  />
        <g>
            <path
                d=" M 21.578 52.632 C 25.19 52.004 28.291 49.372 29.302 45.638 C 30.692 40.504 27.609 35.219 22.422 33.843 C 17.234 32.467 11.895 35.519 10.505 40.653 C 10.48 40.742 10.457 40.832 10.435 40.922 C 10.88 40.854 11.346 40.876 11.808 40.998 C 12.534 41.191 13.142 41.604 13.578 42.145 C 14.228 41.892 14.963 41.835 15.69 42.028 C 17.055 42.39 18 43.529 18.169 44.836 C 18.401 44.846 18.636 44.882 18.87 44.944 C 20.674 45.422 21.746 47.261 21.263 49.046 C 21.2 49.278 21.114 49.497 21.007 49.701 C 21.621 50.498 21.869 51.558 21.587 52.6 C 21.584 52.611 21.581 52.621 21.578 52.632 Z "
                fill="rgb(255,255,255)" />
            <clipPath id="_clipPath_LOlJsfklUnFgsptwn2EPA2Qkst0VCe53">
                <path
                    d=" M 21.578 52.632 C 25.19 52.004 28.291 49.372 29.302 45.638 C 30.692 40.504 27.609 35.219 22.422 33.843 C 17.234 32.467 11.895 35.519 10.505 40.653 C 10.48 40.742 10.457 40.832 10.435 40.922 C 10.88 40.854 11.346 40.876 11.808 40.998 C 12.534 41.191 13.142 41.604 13.578 42.145 C 14.228 41.892 14.963 41.835 15.69 42.028 C 17.055 42.39 18 43.529 18.169 44.836 C 18.401 44.846 18.636 44.882 18.87 44.944 C 20.674 45.422 21.746 47.261 21.263 49.046 C 21.2 49.278 21.114 49.497 21.007 49.701 C 21.621 50.498 21.869 51.558 21.587 52.6 C 21.584 52.611 21.581 52.621 21.578 52.632 Z "
                    fill="rgb(255,255,255)" />
            </clipPath>
            <g clip-path="url(#_clipPath_LOlJsfklUnFgsptwn2EPA2Qkst0VCe53)">
                <g>
                    <path
                        d=" M 28.077 45.313 C 26.868 49.777 22.225 52.43 17.714 51.234 C 13.203 50.038 10.523 45.442 11.731 40.978 C 12.94 36.514 17.583 33.86 22.094 35.056 C 26.605 36.253 29.285 40.848 28.077 45.313 Z "
                        fill="rgb(230,186,129)" />
                    <path
                        d=" M 29.302 45.638 C 28.634 48.105 27.003 50.208 24.769 51.486 C 22.536 52.762 19.878 53.108 17.385 52.447 C 14.894 51.787 12.767 50.171 11.478 47.961 C 10.187 45.748 9.837 43.12 10.505 40.653 C 11.172 38.187 12.804 36.082 15.04 34.805 C 17.273 33.529 19.931 33.182 22.422 33.843 C 24.914 34.504 27.042 36.119 28.331 38.329 C 29.62 40.542 29.969 43.172 29.302 45.638 Z  M 26.85 44.987 C 26.357 46.809 25.151 48.367 23.499 49.309 C 21.848 50.254 19.885 50.509 18.042 50.021 C 16.201 49.532 14.63 48.34 13.675 46.704 C 12.723 45.071 12.463 43.125 12.957 41.303 C 13.45 39.481 14.657 37.924 16.308 36.981 C 17.96 36.039 19.924 35.781 21.765 36.27 C 23.608 36.758 25.179 37.953 26.131 39.586 C 27.086 41.22 27.344 43.165 26.85 44.987 Z "
                        fill-rule="evenodd" fill="rgb(102,78,46)" />
                    <path
                        d=" M 19.431 47.219 C 19.189 48.112 18.26 48.643 17.358 48.403 C 16.456 48.164 15.92 47.245 16.162 46.352 C 16.403 45.459 17.332 44.929 18.234 45.168 C 19.136 45.407 19.672 46.326 19.431 47.219 Z "
                        fill="rgb(102,78,46)" />
                    <path
                        d=" M 17.311 42.106 C 17.07 42.998 16.141 43.529 15.239 43.29 C 14.337 43.051 13.8 42.131 14.042 41.239 C 14.284 40.346 15.213 39.815 16.115 40.054 C 17.017 40.294 17.553 41.213 17.311 42.106 Z "
                        fill="rgb(102,78,46)" />
                    <path
                        d=" M 24.185 46.746 C 23.943 47.639 23.015 48.17 22.112 47.93 C 21.21 47.691 20.674 46.772 20.916 45.879 C 21.158 44.986 22.086 44.456 22.988 44.695 C 23.89 44.934 24.427 45.853 24.185 46.746 Z "
                        fill="rgb(102,78,46)" />
                    <path
                        d=" M 20.599 38.859 C 20.357 39.752 19.429 40.283 18.526 40.044 C 17.624 39.804 17.088 38.885 17.33 37.992 C 17.572 37.1 18.5 36.569 19.402 36.808 C 20.305 37.047 20.841 37.967 20.599 38.859 Z "
                        fill="rgb(102,78,46)" />
                    <path
                        d=" M 21.792 42.644 C 21.55 43.536 20.621 44.067 19.719 43.828 C 18.817 43.589 18.281 42.669 18.523 41.777 C 18.764 40.884 19.693 40.353 20.595 40.592 C 21.497 40.832 22.033 41.751 21.792 42.644 Z "
                        fill="rgb(102,78,46)" />
                    <path
                        d=" M 25.773 40.882 C 25.531 41.775 24.602 42.305 23.7 42.066 C 22.798 41.827 22.262 40.908 22.503 40.015 C 22.745 39.122 23.674 38.591 24.576 38.83 C 25.478 39.07 26.014 39.989 25.773 40.882 Z "
                        fill="rgb(102,78,46)" />
                </g>
            </g>
            <path
                d=" M 13.788 61.017 C 13.547 61.91 12.618 62.44 11.716 62.201 C 10.814 61.962 10.277 61.043 10.519 60.15 C 10.761 59.257 11.69 58.726 12.592 58.966 C 13.494 59.205 14.03 60.124 13.788 61.017 Z "
                fill="rgb(230,186,129)" />
            <path
                d=" M 13.156 47.737 C 12.915 48.629 11.986 49.16 11.084 48.921 C 10.182 48.682 9.646 47.762 9.887 46.87 C 10.129 45.977 11.058 45.446 11.96 45.685 C 12.862 45.925 13.398 46.844 13.156 47.737 Z "
                fill="rgb(230,186,129)" />
            <path
                d=" M 4.392 55.707 C 4.151 56.6 3.222 57.131 2.32 56.892 C 1.418 56.653 0.881 55.733 1.123 54.841 C 1.365 53.948 2.294 53.417 3.196 53.656 C 4.098 53.895 4.634 54.815 4.392 55.707 Z "
                fill="rgb(230,186,129)" />
            <path
                d=" M 18.087 54.307 C 17.966 54.753 17.502 55.019 17.05 54.899 C 16.599 54.779 16.331 54.32 16.452 53.873 C 16.573 53.427 17.037 53.161 17.488 53.281 C 17.939 53.401 18.208 53.86 18.087 54.307 Z "
                fill="rgb(102,78,46)" />
            <path
                d=" M 9.251 53.264 C 9.13 53.71 8.666 53.976 8.215 53.856 C 7.764 53.737 7.496 53.277 7.617 52.831 C 7.737 52.384 8.202 52.119 8.653 52.238 C 9.104 52.358 9.372 52.818 9.251 53.264 Z "
                fill="rgb(102,78,46)" />
            <path
                d=" M 5.644 62.542 C 5.524 62.988 5.059 63.254 4.608 63.134 C 4.157 63.014 3.889 62.555 4.01 62.108 C 4.131 61.662 4.595 61.396 5.046 61.516 C 5.497 61.636 5.765 62.095 5.644 62.542 Z "
                fill="rgb(102,78,46)" />
            <path
                d=" M 6.61 47.518 C 6.489 47.964 6.024 48.229 5.573 48.11 C 5.122 47.99 4.854 47.531 4.975 47.084 C 5.096 46.638 5.56 46.372 6.011 46.492 C 6.462 46.612 6.73 47.071 6.61 47.518 Z "
                fill="rgb(102,78,46)" />
            <path
                d=" M 14.605 61.234 C 14.461 61.768 14.142 62.239 13.7 62.576 C 13.256 62.913 12.714 63.096 12.153 63.096 C 11.931 63.096 11.711 63.066 11.496 63.01 C 10.956 62.867 10.48 62.551 10.14 62.114 C 9.799 61.674 9.615 61.136 9.615 60.583 C 9.615 60.364 9.645 60.146 9.702 59.932 C 9.846 59.398 10.165 58.927 10.609 58.59 C 11.051 58.253 11.595 58.071 12.153 58.071 C 12.376 58.071 12.596 58.1 12.811 58.157 C 13.351 58.299 13.827 58.615 14.167 59.053 C 14.508 59.493 14.692 60.031 14.692 60.583 C 14.692 60.803 14.662 61.021 14.605 61.234 Z  M 12.972 60.801 C 12.923 60.979 12.818 61.136 12.67 61.247 C 12.522 61.36 12.34 61.421 12.153 61.421 C 12.079 61.421 12.005 61.412 11.936 61.391 C 11.756 61.345 11.595 61.241 11.483 61.094 C 11.369 60.948 11.307 60.768 11.307 60.583 C 11.307 60.51 11.318 60.437 11.337 60.368 C 11.383 60.19 11.491 60.031 11.637 59.92 C 11.785 59.807 11.967 59.746 12.153 59.746 C 12.227 59.746 12.302 59.756 12.373 59.775 C 12.553 59.821 12.712 59.928 12.824 60.073 C 12.938 60.219 13 60.399 13 60.583 C 13 60.657 12.991 60.73 12.972 60.801 Z "
                fill-rule="evenodd" fill="rgb(102,78,46)" />
            <path
                d=" M 13.975 47.953 C 13.829 48.487 13.511 48.96 13.067 49.297 C 12.625 49.632 12.082 49.816 11.523 49.816 C 11.301 49.816 11.079 49.787 10.865 49.73 C 10.326 49.586 9.848 49.272 9.507 48.832 C 9.169 48.395 8.983 47.857 8.983 47.304 C 8.983 47.084 9.012 46.864 9.069 46.653 C 9.215 46.119 9.533 45.646 9.977 45.309 C 10.419 44.974 10.963 44.79 11.521 44.79 C 11.743 44.79 11.965 44.819 12.179 44.875 C 12.718 45.02 13.196 45.334 13.537 45.774 C 13.875 46.211 14.061 46.749 14.061 47.302 C 14.061 47.522 14.032 47.742 13.975 47.953 Z  M 12.34 47.52 C 12.291 47.698 12.185 47.855 12.037 47.968 C 11.889 48.081 11.709 48.141 11.523 48.141 C 11.449 48.141 11.375 48.131 11.303 48.112 C 11.123 48.064 10.965 47.959 10.85 47.813 C 10.736 47.666 10.675 47.488 10.675 47.304 C 10.675 47.231 10.685 47.157 10.704 47.086 C 10.753 46.908 10.859 46.751 11.007 46.638 C 11.155 46.527 11.335 46.464 11.521 46.464 C 11.595 46.464 11.669 46.475 11.741 46.494 C 11.921 46.542 12.079 46.647 12.194 46.793 C 12.306 46.94 12.369 47.118 12.369 47.302 C 12.369 47.375 12.359 47.448 12.34 47.52 Z "
                fill-rule="evenodd" fill="rgb(102,78,46)" />
            <path
                d=" M 5.209 55.925 C 5.065 56.459 4.746 56.93 4.304 57.267 C 3.859 57.604 3.318 57.786 2.757 57.786 C 2.535 57.786 2.315 57.757 2.102 57.701 C 1.56 57.558 1.084 57.242 0.744 56.804 C 0.403 56.365 0.219 55.827 0.219 55.274 C 0.219 55.054 0.249 54.837 0.306 54.623 C 0.45 54.089 0.769 53.618 1.213 53.281 C 1.655 52.944 2.199 52.762 2.757 52.762 C 2.98 52.762 3.2 52.791 3.415 52.848 C 3.955 52.99 4.431 53.306 4.771 53.744 C 5.112 54.183 5.296 54.721 5.296 55.274 C 5.296 55.494 5.266 55.712 5.209 55.925 Z  M 3.576 55.49 C 3.527 55.668 3.422 55.827 3.274 55.938 C 3.125 56.051 2.944 56.112 2.757 56.112 C 2.683 56.112 2.611 56.101 2.54 56.082 C 2.36 56.036 2.199 55.929 2.087 55.785 C 1.973 55.638 1.911 55.458 1.911 55.274 C 1.911 55.201 1.922 55.128 1.941 55.056 C 1.987 54.878 2.095 54.721 2.241 54.61 C 2.389 54.497 2.571 54.437 2.757 54.437 C 2.831 54.437 2.905 54.445 2.977 54.466 C 3.157 54.512 3.316 54.617 3.428 54.763 C 3.542 54.91 3.604 55.09 3.604 55.274 C 3.604 55.347 3.595 55.421 3.576 55.49 Z "
                fill-rule="evenodd" fill="rgb(102,78,46)" />
            <path
                d=" M 18.903 54.525 C 18.808 54.881 18.594 55.195 18.3 55.419 C 18.004 55.643 17.643 55.764 17.27 55.764 C 17.122 55.764 16.974 55.745 16.83 55.707 C 16.471 55.613 16.153 55.402 15.927 55.109 C 15.701 54.818 15.578 54.46 15.578 54.089 C 15.578 53.943 15.597 53.798 15.635 53.656 C 15.73 53.3 15.944 52.986 16.24 52.762 C 16.534 52.536 16.896 52.414 17.27 52.414 C 17.418 52.414 17.564 52.435 17.708 52.473 C 18.068 52.567 18.385 52.779 18.611 53.07 C 18.84 53.363 18.963 53.721 18.963 54.089 C 18.963 54.236 18.941 54.382 18.903 54.525 Z "
                fill="rgb(102,78,46)" />
            <path
                d=" M 10.068 53.48 C 9.973 53.836 9.759 54.152 9.465 54.376 C 9.169 54.6 8.807 54.721 8.435 54.721 C 8.287 54.721 8.139 54.703 7.995 54.665 C 7.635 54.569 7.318 54.359 7.092 54.066 C 6.865 53.775 6.74 53.415 6.74 53.047 C 6.74 52.9 6.762 52.756 6.8 52.613 C 6.895 52.257 7.109 51.943 7.405 51.719 C 7.699 51.493 8.06 51.372 8.435 51.372 C 8.581 51.372 8.729 51.391 8.873 51.43 C 9.232 51.525 9.55 51.736 9.776 52.027 C 10.002 52.32 10.127 52.678 10.127 53.047 C 10.127 53.193 10.106 53.34 10.068 53.48 Z "
                fill="rgb(102,78,46)" />
            <path
                d=" M 6.461 62.759 C 6.366 63.114 6.152 63.428 5.858 63.655 C 5.562 63.879 5.201 64 4.828 64 C 4.68 64 4.532 63.981 4.388 63.943 C 4.029 63.847 3.711 63.638 3.485 63.345 C 3.259 63.052 3.134 62.694 3.134 62.325 C 3.134 62.179 3.155 62.032 3.193 61.892 C 3.288 61.536 3.502 61.22 3.796 60.996 C 4.092 60.772 4.454 60.65 4.826 60.65 C 4.974 60.65 5.122 60.669 5.266 60.707 C 5.626 60.803 5.943 61.013 6.169 61.306 C 6.396 61.599 6.52 61.957 6.52 62.325 C 6.52 62.472 6.499 62.616 6.461 62.759 Z "
                fill="rgb(102,78,46)" />
            <path
                d=" M 7.426 47.735 C 7.331 48.091 7.117 48.405 6.823 48.629 C 6.527 48.853 6.165 48.977 5.793 48.977 C 5.645 48.977 5.497 48.956 5.355 48.918 C 4.995 48.824 4.676 48.612 4.45 48.321 C 4.223 48.028 4.101 47.67 4.101 47.302 C 4.101 47.155 4.12 47.009 4.158 46.866 C 4.255 46.511 4.467 46.196 4.763 45.972 C 5.057 45.748 5.421 45.625 5.793 45.625 C 5.941 45.625 6.087 45.646 6.231 45.684 C 6.59 45.778 6.908 45.989 7.134 46.28 C 7.362 46.573 7.485 46.931 7.485 47.3 C 7.485 47.446 7.466 47.593 7.426 47.735 Z "
                fill="rgb(102,78,46)" />
        </g>
    </g>
</svg>