<?xml version="1.0" encoding="UTF-8" standalone="no"?><!-- Generator: Gravit.io --><svg xmlns="http://www.w3.org/2000/svg" xmlns:xlink="http://www.w3.org/1999/xlink" style="isolation:isolate" viewBox="18.378 25.68 25.307 33.577" width="25.307pt" height="33.577pt"><g><path d=" M 23.932 40.956 C 20.653 42.482 18.378 45.808 18.378 49.661 C 18.378 54.957 22.678 59.257 27.975 59.257 C 33.271 59.257 37.572 54.957 37.572 49.661 C 37.572 49.568 37.57 49.475 37.568 49.383 C 37.162 49.562 36.713 49.66 36.241 49.66 C 35.499 49.66 34.814 49.418 34.259 49.008 C 33.704 49.418 33.019 49.66 32.277 49.66 C 30.884 49.66 29.688 48.805 29.191 47.59 C 28.967 47.64 28.734 47.665 28.496 47.665 C 26.653 47.665 25.158 46.169 25.158 44.327 C 25.158 44.088 25.183 43.856 25.233 43.632 C 24.442 43.022 23.932 42.064 23.932 40.989 C 23.932 40.978 23.932 40.967 23.932 40.956 Z " fill="rgb(255,255,255)"/><clipPath id="_clipPath_VWraFMWrcjJ3y1PVUkMQ6q8Zi8jYwxjY"><path d=" M 23.932 40.956 C 20.653 42.482 18.378 45.808 18.378 49.661 C 18.378 54.957 22.678 59.257 27.975 59.257 C 33.271 59.257 37.572 54.957 37.572 49.661 C 37.572 49.568 37.57 49.475 37.568 49.383 C 37.162 49.562 36.713 49.66 36.241 49.66 C 35.499 49.66 34.814 49.418 34.259 49.008 C 33.704 49.418 33.019 49.66 32.277 49.66 C 30.884 49.66 29.688 48.805 29.191 47.59 C 28.967 47.64 28.734 47.665 28.496 47.665 C 26.653 47.665 25.158 46.169 25.158 44.327 C 25.158 44.088 25.183 43.856 25.233 43.632 C 24.442 43.022 23.932 42.064 23.932 40.989 C 23.932 40.978 23.932 40.967 23.932 40.956 Z " fill="rgb(255,255,255)"/></clipPath><g clip-path="url(#_clipPath_VWraFMWrcjJ3y1PVUkMQ6q8Zi8jYwxjY)"><g><circle vector-effect="non-scaling-stroke" cx="27.97407850065488" cy="49.660468427036704" r="8.345100597861009" fill="rgb(230,186,129)"/><path d=" M 18.378 49.661 C 18.378 47.115 19.39 44.674 21.188 42.874 C 22.986 41.076 25.429 40.064 27.975 40.064 C 30.518 40.064 32.961 41.076 34.759 42.874 C 36.56 44.674 37.572 47.115 37.572 49.661 C 37.572 52.204 36.56 54.647 34.759 56.447 C 32.961 58.246 30.518 59.257 27.975 59.257 C 25.429 59.257 22.986 58.246 21.188 56.447 C 19.39 54.647 18.378 52.204 18.378 49.661 Z  M 20.881 49.661 C 20.881 47.781 21.628 45.974 22.959 44.645 C 24.288 43.314 26.093 42.567 27.975 42.567 C 29.854 42.567 31.659 43.314 32.99 44.645 C 34.319 45.974 35.068 47.781 35.068 49.661 C 35.068 51.54 34.319 53.347 32.99 54.676 C 31.659 56.005 29.854 56.754 27.975 56.754 C 26.093 56.754 24.288 56.005 22.959 54.676 C 21.628 53.347 20.881 51.54 20.881 49.661 Z " fill-rule="evenodd" fill="rgb(102,78,46)"/><circle vector-effect="non-scaling-stroke" cx="29.043294514755804" cy="45.618310324947885" r="1.669020119572199" fill="rgb(102,78,46)"/><circle vector-effect="non-scaling-stroke" cx="32.381334753900234" cy="49.99948813882487" r="1.6690201195722025" fill="rgb(102,78,46)"/><circle vector-effect="non-scaling-stroke" cx="24.636038261510517" cy="47.28733044452001" r="1.669020119572199" fill="rgb(102,78,46)"/><circle vector-effect="non-scaling-stroke" cx="30.08643208948838" cy="53.96341092280889" r="1.669020119572199" fill="rgb(102,78,46)"/><circle vector-effect="non-scaling-stroke" cx="27.974078500654812" cy="50.6253706836645" r="1.6690201195722025" fill="rgb(102,78,46)"/><circle vector-effect="non-scaling-stroke" cx="24.636038261510436" cy="53.33752837796928" r="1.6690201195722025" fill="rgb(102,78,46)"/></g></g><circle vector-effect="non-scaling-stroke" cx="30.860019342812997" cy="30.896636173664554" r="1.6690201195721759" fill="rgb(230,186,129)"/><circle vector-effect="non-scaling-stroke" cx="34.88723570047381" cy="43.51860082792932" r="1.669020119572174" fill="rgb(230,186,129)"/><circle vector-effect="non-scaling-stroke" cx="41.18083240136083" cy="33.60879386796948" r="1.669020119572174" fill="rgb(230,186,129)"/><circle vector-effect="non-scaling-stroke" cx="27.661137228235432" cy="38.452917605278316" r="0.8345100597861119" fill="rgb(102,78,46)"/><circle vector-effect="non-scaling-stroke" cx="36.34762830509965" cy="37.201152515599404" r="0.8345100597861119" fill="rgb(102,78,46)"/><circle vector-effect="non-scaling-stroke" cx="37.39076587983225" cy="27.349968419573724" r="0.8345100597861119" fill="rgb(102,78,46)"/><circle vector-effect="non-scaling-stroke" cx="40.34632234157461" cy="42.05820822330372" r="0.8345100597861119" fill="rgb(102,78,46)"/><path d=" M 28.357 30.896 C 28.356 30.345 28.539 29.81 28.873 29.373 C 29.209 28.935 29.678 28.622 30.212 28.478 C 30.424 28.422 30.641 28.394 30.861 28.393 C 31.412 28.392 31.947 28.575 32.384 28.909 C 32.822 29.246 33.136 29.717 33.279 30.249 C 33.335 30.46 33.363 30.677 33.364 30.898 C 33.364 31.448 33.182 31.983 32.845 32.421 C 32.511 32.858 32.04 33.172 31.508 33.315 C 31.297 33.372 31.08 33.4 30.859 33.4 C 30.309 33.401 29.774 33.218 29.337 32.884 C 28.899 32.548 28.585 32.077 28.442 31.545 C 28.385 31.333 28.357 31.116 28.357 30.896 Z  M 30.024 30.896 C 30.025 30.712 30.085 30.534 30.197 30.39 C 30.309 30.243 30.467 30.138 30.644 30.091 C 30.715 30.072 30.788 30.061 30.859 30.063 C 31.043 30.062 31.223 30.121 31.367 30.234 C 31.514 30.346 31.619 30.503 31.666 30.681 C 31.685 30.751 31.694 30.824 31.694 30.896 C 31.695 31.079 31.634 31.26 31.523 31.404 C 31.411 31.55 31.254 31.655 31.076 31.703 C 31.006 31.722 30.933 31.73 30.859 31.731 C 30.676 31.732 30.497 31.67 30.353 31.56 C 30.207 31.448 30.102 31.29 30.054 31.113 C 30.035 31.042 30.024 30.969 30.024 30.896 Z " fill-rule="evenodd" fill="rgb(102,78,46)"/><path d=" M 32.383 43.519 C 32.384 42.968 32.564 42.432 32.901 41.994 C 33.235 41.559 33.706 41.242 34.238 41.1 C 34.449 41.043 34.669 41.015 34.887 41.015 C 35.438 41.016 35.974 41.196 36.412 41.532 C 36.847 41.867 37.164 42.338 37.306 42.87 C 37.363 43.081 37.391 43.3 37.391 43.518 C 37.39 44.07 37.21 44.606 36.874 45.044 C 36.539 45.479 36.068 45.795 35.536 45.938 C 35.325 45.994 35.106 46.023 34.887 46.023 C 34.336 46.022 33.8 45.841 33.362 45.505 C 32.927 45.17 32.611 44.7 32.468 44.168 C 32.411 43.956 32.383 43.737 32.383 43.519 Z  M 34.052 43.519 C 34.053 43.335 34.113 43.157 34.225 43.01 C 34.337 42.864 34.493 42.76 34.67 42.712 C 34.74 42.693 34.814 42.684 34.887 42.684 C 35.071 42.685 35.249 42.745 35.395 42.857 C 35.542 42.969 35.646 43.124 35.694 43.302 C 35.713 43.372 35.722 43.445 35.722 43.519 C 35.721 43.702 35.661 43.881 35.549 44.027 C 35.437 44.172 35.282 44.278 35.104 44.326 C 35.034 44.345 34.961 44.353 34.887 44.354 C 34.704 44.353 34.525 44.293 34.379 44.181 C 34.234 44.068 34.128 43.913 34.08 43.736 C 34.061 43.666 34.053 43.592 34.052 43.519 Z " fill-rule="evenodd" fill="rgb(102,78,46)"/><path d=" M 38.678 33.608 C 38.677 33.057 38.86 32.522 39.194 32.085 C 39.53 31.647 39.999 31.333 40.533 31.19 C 40.745 31.134 40.962 31.106 41.18 31.106 C 41.733 31.104 42.268 31.287 42.705 31.621 C 43.143 31.958 43.457 32.429 43.599 32.961 C 43.656 33.172 43.684 33.389 43.685 33.61 C 43.685 34.16 43.503 34.695 43.166 35.133 C 42.832 35.57 42.361 35.884 41.829 36.027 C 41.617 36.084 41.4 36.111 41.18 36.112 C 40.63 36.113 40.095 35.93 39.657 35.596 C 39.22 35.26 38.905 34.789 38.763 34.257 C 38.706 34.045 38.678 33.828 38.678 33.608 Z  M 40.346 33.61 C 40.346 33.426 40.406 33.246 40.518 33.102 C 40.63 32.955 40.788 32.85 40.965 32.803 C 41.036 32.784 41.107 32.775 41.18 32.775 C 41.363 32.774 41.544 32.835 41.688 32.946 C 41.835 33.058 41.94 33.215 41.987 33.393 C 42.006 33.463 42.015 33.536 42.015 33.61 C 42.017 33.793 41.954 33.972 41.844 34.116 C 41.732 34.262 41.574 34.367 41.397 34.415 C 41.327 34.434 41.254 34.444 41.18 34.443 C 40.997 34.444 40.819 34.384 40.674 34.272 C 40.527 34.16 40.423 34.002 40.375 33.825 C 40.356 33.754 40.345 33.681 40.346 33.61 Z " fill-rule="evenodd" fill="rgb(102,78,46)"/><path d=" M 25.993 38.452 C 25.991 38.085 26.114 37.728 26.336 37.437 C 26.561 37.146 26.874 36.937 27.229 36.842 C 27.37 36.804 27.516 36.784 27.662 36.784 C 28.029 36.783 28.386 36.905 28.677 37.13 C 28.968 37.352 29.177 37.665 29.273 38.022 C 29.31 38.163 29.33 38.307 29.33 38.454 C 29.331 38.821 29.209 39.177 28.984 39.469 C 28.762 39.761 28.449 39.971 28.093 40.066 C 27.951 40.104 27.807 40.121 27.66 40.121 C 27.293 40.123 26.937 40 26.646 39.778 C 26.353 39.554 26.143 39.241 26.048 38.886 C 26.011 38.745 25.993 38.598 25.993 38.452 Z " fill="rgb(102,78,46)"/><path d=" M 34.679 37.202 C 34.678 36.835 34.8 36.476 35.023 36.185 C 35.247 35.894 35.56 35.685 35.915 35.59 C 36.056 35.552 36.202 35.532 36.349 35.532 C 36.716 35.533 37.072 35.653 37.364 35.878 C 37.654 36.1 37.866 36.415 37.961 36.77 C 37.999 36.911 38.016 37.055 38.016 37.202 C 38.018 37.569 37.895 37.926 37.671 38.217 C 37.449 38.509 37.136 38.719 36.779 38.814 C 36.64 38.851 36.494 38.871 36.347 38.87 C 35.98 38.871 35.623 38.748 35.332 38.526 C 35.041 38.301 34.83 37.989 34.735 37.634 C 34.697 37.493 34.679 37.347 34.679 37.202 Z " fill="rgb(102,78,46)"/><path d=" M 35.722 27.35 C 35.721 26.983 35.844 26.626 36.065 26.333 C 36.29 26.042 36.603 25.833 36.958 25.738 C 37.099 25.7 37.245 25.68 37.391 25.68 C 37.759 25.681 38.115 25.801 38.406 26.026 C 38.698 26.25 38.909 26.563 39.004 26.918 C 39.042 27.059 39.059 27.205 39.059 27.35 C 39.06 27.717 38.938 28.076 38.716 28.366 C 38.492 28.657 38.178 28.867 37.824 28.962 C 37.683 29 37.537 29.019 37.39 29.02 C 37.022 29.019 36.666 28.898 36.375 28.674 C 36.084 28.449 35.873 28.137 35.777 27.782 C 35.74 27.641 35.723 27.497 35.722 27.35 Z " fill="rgb(102,78,46)"/><path d=" M 38.678 42.057 C 38.677 41.69 38.799 41.333 39.022 41.043 C 39.246 40.751 39.559 40.54 39.914 40.445 C 40.055 40.407 40.201 40.39 40.346 40.39 C 40.713 40.389 41.072 40.511 41.362 40.733 C 41.653 40.957 41.863 41.271 41.958 41.625 C 41.995 41.766 42.015 41.912 42.016 42.059 C 42.015 42.426 41.894 42.783 41.67 43.074 C 41.447 43.365 41.133 43.576 40.778 43.671 C 40.637 43.709 40.493 43.726 40.346 43.727 C 39.979 43.728 39.622 43.605 39.331 43.383 C 39.038 43.159 38.829 42.846 38.734 42.491 C 38.696 42.35 38.676 42.204 38.678 42.057 Z " fill="rgb(102,78,46)"/></g></svg>